<svg width="20" height="17" viewBox="0 0 20 17" fill="none" xmlns="http://www.w3.org/2000/svg">
<path d="M8.12358 2.24285C8.57419 1.72976 8.57419 0.897894 8.12358 0.384812C7.67298 -0.128271 6.9424 -0.128271 6.4918 0.384812L0.337954 7.3919C0.112651 7.64844 0 7.98468 0 8.32092C0 8.49906 0.0311371 8.66892 0.0875524 8.82383C0.14386 8.97879 0.227327 9.12397 0.337954 9.24994L6.4918 16.257C6.9424 16.7701 7.67298 16.7701 8.12358 16.257C8.57419 15.7439 8.57419 14.9121 8.12358 14.399L3.93948 9.63475H18.8462C19.4834 9.63475 20 9.04653 20 8.32092C20 7.59531 19.4834 7.00709 18.8462 7.00709H3.93948L8.12358 2.24285Z" fill="#284B63" fill-opacity="0.7"/>
</svg>
